<?xml version="1.0" encoding="utf-8"?>
<svg viewBox="2.2378 155.8878 497.1308 111.318" xmlns="http://www.w3.org/2000/svg">
  <path d="M2 2378 l3 -1363 1862 -3 1863 -2 2 -503 3 -502 670 0 670 0 3 502 2&#10;503 5800 0 5800 0 0 1365 0 1365 -302 -2 -303 -3 -3 -507 -2 -508 -1170 0&#10;-1170 0 -2 508 -3 507 -310 0 -310 0 -3 -507 -2 -508 -670 0 -670 0 -2 508 -3&#10;507 -1305 0 -1305 0 -3 -507 -2 -508 -795 0 -795 0 -2 508 -3 507 -315 0 -315&#10;0 -3 -507 -2 -508 -2720 0 -2720 0 -2 508 -3 507 -733 3 -732 2 2 -1362z m426&#10;1310 c3 -16 -8 -18 -122 -18 -120 0 -126 1 -126 20 0 20 5 20 122 18 108 -3&#10;123 -5 126 -20z m990 0 c3 -17 -14 -18 -247 -18 -203 0 -251 3 -251 13 0 8 3&#10;17 7 21 4 3 115 5 247 4 220 -3 241 -5 244 -20z m5940 0 c3 -16 -8 -18 -127&#10;-18 -103 0 -131 3 -131 13 0 25 14 28 134 25 106 -3 121 -5 124 -20z m2720 0&#10;c3 -17 -14 -18 -247 -18 -203 0 -251 3 -251 13 0 8 3 17 7 21 4 3 115 5 247 4&#10;220 -3 241 -5 244 -20z m1482 2 c0 -20 -7 -20 -620 -20 -510 0 -620 2 -620 13&#10;0 8 3 17 7 20 3 4 282 7 620 7 606 0 613 0 613 -20z m1980 0 c0 -19 -7 -20&#10;-125 -20 -97 0 -125 3 -125 13 0 25 12 27 132 27 111 0 118 -1 118 -20z m2970&#10;0 c0 -19 -7 -20 -125 -20 -97 0 -125 3 -125 13 0 25 12 27 132 27 111 0 118&#10;-1 118 -20z m-16430 -315 l0 -225 -25 0 -25 0 0 225 0 225 25 0 25 0 0 -225z&#10;m490 0 c0 -218 -1 -225 -20 -225 -19 0 -20 7 -20 225 0 218 1 225 20 225 19 0&#10;20 -7 20 -225z m6440 0 l0 -225 -25 0 -25 0 0 225 0 225 25 0 25 0 0 -225z&#10;m490 0 c0 -218 -1 -225 -20 -225 -19 0 -20 7 -20 225 0 218 1 225 20 225 19 0&#10;20 -7 20 -225z m4200 0 c0 -218 -1 -225 -20 -225 -19 0 -20 7 -20 225 0 218 1&#10;225 20 225 19 0 20 -7 20 -225z m1490 0 c0 -218 -1 -225 -20 -225 -19 0 -20 7&#10;-20 225 0 218 1 225 20 225 19 0 20 -7 20 -225z m490 0 c0 -218 -1 -225 -20&#10;-225 -19 0 -20 7 -20 225 0 218 1 225 20 225 19 0 20 -7 20 -225z m2480 0 c0&#10;-218 -1 -225 -20 -225 -19 0 -20 7 -20 225 0 218 1 225 20 225 19 0 20 -7 20&#10;-225z m500 0 l0 -225 -25 0 -25 0 0 225 0 225 25 0 25 0 0 -225z m-15770 171&#10;c0 -2 -33 -82 -73 -177 -63 -148 -77 -175 -97 -177 -27 -4 -33 -25 58 195 58&#10;142 70 163 90 163 12 0 22 -2 22 -4z m422 -176 c-66 -158 -78 -180 -98 -180&#10;-22 0 -22 2 22 108 25 59 59 140 76 180 25 60 34 72 53 72 22 0 20 -7 -53&#10;-180z m8238 176 c0 -2 -33 -82 -73 -177 -63 -148 -77 -175 -97 -177 -27 -4&#10;-33 -25 58 195 58 142 70 163 90 163 12 0 22 -2 22 -4z m740 -3 c0 -4 -33 -85&#10;-72 -180 -64 -152 -75 -173 -95 -173 -23 0 -23 1 -7 38 8 20 35 84 59 142 24&#10;58 51 122 59 143 11 25 23 37 36 37 11 0 20 -3 20 -7z m-212 -375 c3 -16 -8&#10;-18 -122 -18 -120 0 -126 1 -126 20 0 20 5 20 122 18 108 -3 123 -5 126 -20z&#10;m1482 2 c0 -20 -7 -20 -495 -20 -488 0 -495 0 -495 20 0 20 7 20 495 20 488 0&#10;495 0 495 -20z m-11480 -315 l0 -225 -25 0 -25 0 0 225 0 225 25 0 25 0 0&#10;-225z m6930 0 l0 -225 -25 0 -25 0 0 225 0 225 25 0 25 0 0 -225z m490 0 c0&#10;-218 -1 -225 -20 -225 -19 0 -20 7 -20 225 0 218 1 225 20 225 19 0 20 -7 20&#10;-225z m1730 0 c0 -218 -1 -225 -20 -225 -19 0 -20 7 -20 225 0 218 1 225 20&#10;225 19 0 20 -7 20 -225z m500 0 l0 -225 -25 0 -25 0 0 225 0 225 25 0 25 0 0&#10;-225z m250 0 l0 -225 -25 0 -25 0 0 225 0 225 25 0 25 0 0 -225z m3210 0 c0&#10;-218 -1 -225 -20 -225 -19 0 -20 7 -20 225 0 218 1 225 20 225 19 0 20 -7 20&#10;-225z m490 0 c0 -218 -1 -225 -20 -225 -19 0 -20 7 -20 225 0 218 1 225 20&#10;225 19 0 20 -7 20 -225z m2480 0 c0 -218 -1 -225 -20 -225 -19 0 -20 7 -20&#10;225 0 218 1 225 20 225 19 0 20 -7 20 -225z m500 0 l0 -225 -25 0 -25 0 0 225&#10;0 225 25 0 25 0 0 -225z m-6153 184 c9 -9 6 -20 -11 -43 -79 -105 -81 -211 -7&#10;-313 27 -37 28 -43 14 -54 -13 -11 -19 -9 -40 16 -94 114 -97 252 -7 370 29&#10;38 34 41 51 24z m-9927 -59 c0 -47 -2 -50 -25 -50 -23 0 -25 3 -25 50 0 47 2&#10;50 25 50 23 0 25 -3 25 -50z m541 3 c-93 -231 -130 -308 -150 -311 -12 -2 -21&#10;0 -21 4 0 4 33 85 72 181 64 151 76 173 95 173 l23 0 -19 -47z m547 -335 c3&#10;-16 -8 -18 -127 -18 -103 0 -131 3 -131 13 0 25 14 28 134 25 106 -3 121 -5&#10;124 -20z m740 0 c3 -17 -14 -18 -247 -18 -203 0 -251 3 -251 13 0 8 3 17 7 21&#10;4 3 115 5 247 4 220 -3 241 -5 244 -20z m1482 2 c0 -20 -7 -20 -620 -20 -510&#10;0 -620 2 -620 13 0 8 3 17 7 20 3 4 282 7 620 7 606 0 613 0 613 -20z m990 0&#10;c0 -19 -7 -20 -125 -20 -98 0 -125 3 -125 13 0 25 12 27 132 27 111 0 118 -1&#10;118 -20z m990 0 c0 -20 -7 -20 -375 -20 -306 0 -375 2 -375 13 0 8 3 17 7 20&#10;3 4 172 7 375 7 361 0 368 0 368 -20z m990 0 c0 -20 -7 -20 -375 -20 -306 0&#10;-375 2 -375 13 0 8 3 17 7 20 3 4 172 7 375 7 361 0 368 0 368 -20z m990 0 c0&#10;-19 -7 -20 -125 -20 -97 0 -125 3 -125 13 0 25 12 27 132 27 111 0 118 -1 118&#10;-20z m990 0 c0 -20 -7 -20 -375 -20 -306 0 -375 2 -375 13 0 8 3 17 7 20 3 4&#10;172 7 375 7 361 0 368 0 368 -20z m2478 -2 c3 -17 -20 -18 -372 -18 -370 0&#10;-376 0 -376 20 0 20 5 20 372 18 346 -3 373 -4 376 -20z m1480 0 c3 -17 -20&#10;-18 -372 -18 -307 0 -376 2 -376 13 0 8 3 17 7 20 4 4 171 6 372 5 339 -3 366&#10;-4 369 -20z m1490 0 c3 -17 -14 -18 -252 -18 -207 0 -256 3 -256 13 0 8 3 17&#10;7 21 4 3 117 5 252 4 225 -3 246 -4 249 -20z m1480 0 c3 -17 -20 -18 -372 -18&#10;-307 0 -376 2 -376 13 0 8 3 17 7 20 4 4 171 6 372 5 339 -3 366 -4 369 -20z&#10;m-15688 -313 l0 -225 -25 0 -25 0 0 225 0 225 25 0 25 0 0 -225z m1240 0 l0&#10;-225 -25 0 -25 0 0 225 0 225 25 0 25 0 0 -225z m1230 0 c0 -218 -1 -225 -20&#10;-225 -19 0 -20 7 -20 225 0 218 1 225 20 225 19 0 20 -7 20 -225z m1490 0 l0&#10;-225 -25 0 -25 0 0 225 0 225 25 0 25 0 0 -225z m490 0 c0 -218 -1 -225 -20&#10;-225 -19 0 -20 7 -20 225 0 218 1 225 20 225 19 0 20 -7 20 -225z m1490 0 l0&#10;-225 -25 0 -25 0 0 225 0 225 25 0 25 0 0 -225z m3210 0 c0 -218 -1 -225 -20&#10;-225 -19 0 -20 7 -20 225 0 218 1 225 20 225 19 0 20 -7 20 -225z m3960 0 c0&#10;-218 -1 -225 -20 -225 -19 0 -20 7 -20 225 0 218 1 225 20 225 19 0 20 -7 20&#10;-225z m2970 0 c0 -218 -1 -225 -20 -225 -19 0 -20 7 -20 225 0 218 1 225 20&#10;225 19 0 20 -7 20 -225z m500 0 l0 -225 -25 0 -25 0 0 225 0 225 25 0 25 0 0&#10;-225z m-14840 163 c0 -7 -3 -30 -7 -51 -5 -31 -9 -38 -27 -35 -17 2 -22 11&#10;-24 51 -3 46 -3 47 27 47 18 0 31 -5 31 -12z m1790 5 c0 -4 -33 -85 -72 -180&#10;-64 -152 -75 -173 -95 -173 -23 0 -23 1 -7 38 8 20 35 84 59 142 24 58 51 122&#10;59 143 11 25 23 37 36 37 11 0 20 -3 20 -7z m1412 -173 c-66 -158 -78 -180&#10;-98 -180 -22 0 -22 2 22 108 25 59 59 140 76 180 25 60 34 72 53 72 22 0 20&#10;-7 -53 -180z m1980 0 c-66 -158 -78 -180 -98 -180 -22 0 -22 2 22 108 25 59&#10;59 140 76 180 25 60 34 72 53 72 22 0 20 -7 -53 -180z m990 0 c-66 -158 -78&#10;-180 -98 -180 -22 0 -22 2 22 108 25 59 59 140 76 180 25 60 34 72 53 72 22 0&#10;20 -7 -53 -180z m1000 0 c72 -172 74 -180 53 -180 -19 0 -28 13 -53 73 -17 39&#10;-51 120 -76 180 -44 105 -45 107 -22 107 20 0 31 -21 98 -180z m1236 7 c39&#10;-96 72 -177 72 -181 0 -4 -9 -6 -21 -4 -20 3 -57 80 -150 311 l-19 47 23 0&#10;c19 0 31 -22 95 -173z m1219 38 c30 -71 63 -151 74 -177 l19 -48 -23 0 c-19 0&#10;-31 22 -95 173 -39 96 -72 177 -72 181 0 4 9 6 21 4 16 -2 33 -31 76 -133z&#10;m573 128 c0 -4 -33 -85 -72 -180 -64 -152 -75 -173 -95 -173 -23 0 -23 1 -7&#10;38 8 20 35 84 59 142 24 58 51 122 59 143 11 25 23 37 36 37 11 0 20 -3 20 -7z&#10;m928 -166 c39 -96 72 -177 72 -181 0 -4 -9 -6 -21 -4 -20 3 -57 80 -150 311&#10;l-19 47 23 0 c19 0 31 -22 95 -173z m732 123 c0 -42 -3 -50 -19 -50 -16 0 -20&#10;9 -23 50 -3 46 -1 50 20 50 20 0 22 -5 22 -50z m737 -85 c30 -71 63 -151 74&#10;-177 l19 -48 -23 0 c-19 0 -31 22 -95 173 -39 96 -72 177 -72 181 0 4 9 6 21&#10;4 16 -2 33 -31 76 -133z m573 128 c0 -4 -33 -85 -72 -180 -64 -152 -75 -173&#10;-95 -173 -23 0 -23 1 -7 38 8 20 35 84 59 142 24 58 51 122 59 143 11 25 23&#10;37 36 37 11 0 20 -3 20 -7z m928 -166 c39 -96 72 -177 72 -181 0 -4 -9 -6 -21&#10;-4 -20 3 -57 80 -150 311 l-19 47 23 0 c19 0 31 -22 95 -173z m-15049 89 c9&#10;-10 -1 -23 -47 -62 l-58 -49 59 -49 c52 -43 57 -51 43 -64 -13 -13 -23 -8 -90&#10;48 -41 35 -73 66 -71 68 22 22 141 121 146 122 4 0 12 -6 18 -14z m1539 -298&#10;c3 -17 -14 -18 -247 -18 -203 0 -251 3 -251 13 0 8 3 17 7 21 4 3 115 5 247 4&#10;220 -3 241 -5 244 -20z m500 0 c3 -16 -8 -18 -127 -18 -103 0 -131 3 -131 13&#10;0 25 14 28 134 25 106 -3 121 -5 124 -20z m2962 2 c0 -19 -7 -20 -250 -20&#10;-202 0 -250 3 -250 13 0 8 3 17 7 20 3 4 116 7 250 7 236 0 243 -1 243 -20z&#10;m498 -2 c3 -16 -8 -18 -127 -18 -103 0 -131 3 -131 13 0 25 14 28 134 25 106&#10;-3 121 -5 124 -20z m1482 2 c0 -19 -7 -20 -250 -20 -202 0 -250 3 -250 13 0 8&#10;3 17 7 20 3 4 116 7 250 7 236 0 243 -1 243 -20z m748 -2 c3 -16 -8 -18 -127&#10;-18 -103 0 -131 3 -131 13 0 25 14 28 134 25 106 -3 121 -5 124 -20z m1480 0&#10;c3 -16 -8 -18 -122 -18 -120 0 -126 1 -126 20 0 20 5 20 122 18 108 -3 123 -5&#10;126 -20z m990 0 c3 -17 -20 -18 -372 -18 -307 0 -376 2 -376 13 0 8 3 17 7 20&#10;4 4 171 6 372 5 339 -3 366 -4 369 -20z m1482 2 c0 -19 -7 -20 -125 -20 -97 0&#10;-125 3 -125 13 0 25 12 27 132 27 111 0 118 -1 118 -20z m1488 -2 c3 -16 -8&#10;-18 -127 -18 -103 0 -131 3 -131 13 0 25 14 28 134 25 106 -3 121 -5 124 -20z&#10;m1482 2 c0 -19 -7 -20 -125 -20 -97 0 -125 3 -125 13 0 25 12 27 132 27 111 0&#10;118 -1 118 -20z m-15440 -315 l0 -225 -25 0 -25 0 0 225 0 225 25 0 25 0 0&#10;-225z m1240 0 l0 -225 -25 0 -25 0 0 225 0 225 25 0 25 0 0 -225z m490 0 c0&#10;-218 -1 -225 -20 -225 -19 0 -20 7 -20 225 0 218 1 225 20 225 19 0 20 -7 20&#10;-225z m1730 0 c0 -218 -1 -225 -20 -225 -19 0 -20 7 -20 225 0 218 1 225 20&#10;225 19 0 20 -7 20 -225z m500 0 l0 -225 -25 0 -25 0 0 225 0 225 25 0 25 0 0&#10;-225z m490 0 c0 -218 -1 -225 -20 -225 -19 0 -20 7 -20 225 0 218 1 225 20&#10;225 19 0 20 -7 20 -225z m2480 0 l0 -225 -25 0 -25 0 0 225 0 225 25 0 25 0 0&#10;-225z m490 0 c0 -218 -1 -225 -20 -225 -19 0 -20 7 -20 225 0 218 1 225 20&#10;225 19 0 20 -7 20 -225z m250 0 l0 -225 -25 0 -25 0 0 225 0 225 25 0 25 0 0&#10;-225z m1480 0 c0 -218 -1 -225 -20 -225 -19 0 -20 7 -20 225 0 218 1 225 20&#10;225 19 0 20 -7 20 -225z m500 0 l0 -225 -25 0 -25 0 0 225 0 225 25 0 25 0 0&#10;-225z m1980 0 l0 -225 -25 0 -25 0 0 225 0 225 25 0 25 0 0 -225z m1480 0 c0&#10;-218 -1 -225 -20 -225 -19 0 -20 7 -20 225 0 218 1 225 20 225 19 0 20 -7 20&#10;-225z m500 0 l0 -225 -25 0 -25 0 0 225 0 225 25 0 25 0 0 -225z m990 0 l0&#10;-225 -25 0 -25 0 0 225 0 225 25 0 25 0 0 -225z m1480 0 c0 -218 -1 -225 -20&#10;-225 -19 0 -20 7 -20 225 0 218 1 225 20 225 19 0 20 -7 20 -225z m500 0 l0&#10;-225 -25 0 -25 0 0 225 0 225 25 0 25 0 0 -225z m-8375 185 c3 -5 -7 -29 -23&#10;-52 -70 -104 -70 -206 -1 -302 34 -47 36 -56 10 -56 -44 0 -111 121 -111 200&#10;0 59 27 133 66 178 36 43 48 49 59 32z m429 -32 c38 -44 66 -118 66 -173 0&#10;-82 -66 -205 -111 -205 -25 0 -24 6 6 46 72 94 73 208 3 312 -27 39 -30 62 -8&#10;62 5 0 25 -19 44 -42z m2483 -12 c76 -110 70 -236 -16 -343 -44 -55 -77 -33&#10;-35 23 73 96 73 223 -1 320 -18 23 -21 34 -12 43 17 17 27 10 64 -43z m1042&#10;40 c8 -10 9 -16 2 -21 -20 -12 -64 -97 -72 -138 -10 -58 7 -129 46 -187 29&#10;-43 31 -51 18 -62 -13 -10 -19 -8 -40 17 -94 114 -97 252 -7 370 29 39 36 41&#10;53 21z m427 -18 c73 -87 89 -203 41 -300 -15 -30 -38 -65 -51 -78 -21 -19 -28&#10;-21 -41 -10 -14 12 -13 16 8 39 79 84 85 215 15 312 -27 38 -32 69 -9 69 5 0&#10;22 -15 37 -32z m1501 -22 c76 -110 70 -236 -16 -343 -44 -55 -77 -33 -35 23&#10;73 96 73 223 -1 320 -18 23 -21 34 -12 43 17 17 27 10 64 -43z m1042 40 c8&#10;-10 9 -16 2 -21 -20 -12 -64 -97 -72 -138 -10 -58 7 -129 46 -187 29 -43 31&#10;-51 18 -62 -13 -10 -19 -8 -40 17 -94 114 -97 252 -7 370 29 39 36 41 53 21z&#10;m427 -18 c73 -87 89 -203 41 -300 -15 -30 -38 -65 -51 -78 -21 -19 -28 -21&#10;-41 -10 -14 12 -13 16 8 39 79 84 85 215 15 312 -27 38 -32 69 -9 69 5 0 22&#10;-15 37 -32z m-14579 -123 c30 -71 63 -151 74 -177 l19 -48 -23 0 c-19 0 -31&#10;22 -95 173 -39 96 -72 177 -72 181 0 4 9 6 21 4 16 -2 33 -31 76 -133z m1813&#10;131 c0 -2 -33 -82 -73 -177 -63 -148 -77 -175 -97 -177 -27 -4 -33 -25 58 195&#10;58 142 70 163 90 163 12 0 22 -2 22 -4z m422 -176 c-66 -158 -78 -180 -98&#10;-180 -22 0 -22 2 22 108 25 59 59 140 76 180 25 60 34 72 53 72 22 0 20 -7&#10;-53 -180z m1740 0 c72 -172 74 -180 53 -180 -19 0 -28 13 -53 73 -17 39 -51&#10;120 -76 180 -44 105 -45 107 -22 107 20 0 31 -21 98 -180z m990 0 c72 -172 74&#10;-180 53 -180 -19 0 -28 13 -53 73 -17 39 -51 120 -76 180 -44 105 -45 107 -22&#10;107 20 0 31 -21 98 -180z m308 173 c0 -4 -33 -85 -72 -180 -64 -152 -75 -173&#10;-95 -173 -23 0 -23 1 -7 38 8 20 35 84 59 142 24 58 51 122 59 143 11 25 23&#10;37 36 37 11 0 20 -3 20 -7z m481 -40 c-93 -231 -130 -308 -150 -311 -12 -2&#10;-21 0 -21 4 0 4 33 85 72 181 64 151 76 173 95 173 l23 0 -19 -47z m-6237&#10;-206 c26 -19 18 -61 -12 -65 -45 -7 -72 46 -34 67 22 13 25 13 46 -2z m3814&#10;-129 c3 -16 -8 -18 -127 -18 -103 0 -131 3 -131 13 0 25 14 28 134 25 106 -3&#10;121 -5 124 -20z m1240 0 c3 -17 -14 -18 -252 -18 -207 0 -256 3 -256 13 0 8 3&#10;17 7 21 4 3 117 5 252 4 225 -3 246 -4 249 -20z m2970 0 c3 -16 -8 -18 -127&#10;-18 -103 0 -131 3 -131 13 0 25 14 28 134 25 106 -3 121 -5 124 -20z m2470 0&#10;c3 -17 -26 -18 -497 -18 -411 0 -501 2 -501 13 0 8 3 17 7 20 3 4 227 6 497 5&#10;458 -3 491 -4 494 -20z m1482 2 c0 -19 -7 -20 -125 -20 -97 0 -125 3 -125 13&#10;0 25 12 27 132 27 111 0 118 -1 118 -20z m1488 -2 c3 -16 -8 -18 -127 -18&#10;-103 0 -131 3 -131 13 0 25 14 28 134 25 106 -3 121 -5 124 -20z m1482 2 c0&#10;-19 -7 -20 -125 -20 -97 0 -125 3 -125 13 0 25 12 27 132 27 111 0 118 -1 118&#10;-20z m-15440 -315 l0 -225 -25 0 -25 0 0 225 0 225 25 0 25 0 0 -225z m490 0&#10;c0 -218 -1 -225 -20 -225 -19 0 -20 7 -20 225 0 218 1 225 20 225 19 0 20 -7&#10;20 -225z m1240 0 c0 -218 -1 -225 -20 -225 -19 0 -20 7 -20 225 0 218 1 225&#10;20 225 19 0 20 -7 20 -225z m1730 0 c0 -218 -1 -225 -20 -225 -19 0 -20 7 -20&#10;225 0 218 1 225 20 225 19 0 20 -7 20 -225z m1490 0 l0 -225 -25 0 -25 0 0&#10;225 0 225 25 0 25 0 0 -225z m1980 0 l0 -225 -25 0 -25 0 0 225 0 225 25 0 25&#10;0 0 -225z m2220 0 c0 -218 -1 -225 -20 -225 -19 0 -20 7 -20 225 0 218 1 225&#10;20 225 19 0 20 -7 20 -225z m500 0 l0 -225 -25 0 -25 0 0 225 0 225 25 0 25 0&#10;0 -225z m250 0 l0 -225 -25 0 -25 0 0 225 0 225 25 0 25 0 0 -225z m3210 0 c0&#10;-218 -1 -225 -20 -225 -19 0 -20 7 -20 225 0 218 1 225 20 225 19 0 20 -7 20&#10;-225z m2970 0 c0 -218 -1 -225 -20 -225 -19 0 -20 7 -20 225 0 218 1 225 20&#10;225 19 0 20 -7 20 -225z m500 0 l0 -225 -25 0 -25 0 0 225 0 225 25 0 25 0 0&#10;-225z m-15833 -4 c40 -96 73 -176 73 -177 0 -2 -10 -4 -22 -4 -20 0 -32 21&#10;-90 163 -91 219 -85 199 -58 195 20 -2 34 -30 97 -177z m495 -1 c72 -172 74&#10;-180 53 -180 -19 0 -28 13 -53 73 -17 39 -51 120 -76 180 -44 105 -45 107 -22&#10;107 20 0 31 -21 98 -180z m1298 173 c0 -4 -33 -85 -72 -180 -64 -152 -75 -173&#10;-95 -173 -23 0 -23 1 -7 38 8 20 35 84 59 142 24 58 51 122 59 143 11 25 23&#10;37 36 37 11 0 20 -3 20 -7z m1157 -128 c30 -71 63 -151 74 -177 l19 -48 -23 0&#10;c-19 0 -31 22 -95 173 -39 96 -72 177 -72 181 0 4 9 6 21 4 16 -2 33 -31 76&#10;-133z m2235 -45 c-66 -158 -78 -180 -98 -180 -22 0 -22 2 22 108 25 59 59 140&#10;76 180 25 60 34 72 53 72 22 0 20 -7 -53 -180z m1246 7 c39 -96 72 -177 72&#10;-181 0 -4 -9 -6 -21 -4 -20 3 -57 80 -150 311 l-19 47 23 0 c19 0 31 -22 95&#10;-173z m744 -7 c72 -172 74 -180 53 -180 -19 0 -28 13 -53 73 -17 39 -51 120&#10;-76 180 -44 105 -45 107 -22 107 20 0 31 -21 98 -180z m980 0 c-66 -158 -78&#10;-180 -98 -180 -22 0 -22 2 22 108 25 59 59 140 76 180 25 60 34 72 53 72 22 0&#10;20 -7 -53 -180z m2529 133 c-93 -231 -130 -308 -150 -311 -12 -2 -21 0 -21 4&#10;0 4 33 85 72 181 64 151 76 173 95 173 l23 0 -19 -47z m447 -126 c39 -96 72&#10;-177 72 -181 0 -4 -9 -6 -21 -4 -20 3 -57 80 -150 311 l-19 47 23 0 c19 0 31&#10;-22 95 -173z m1052 166 c0 -4 -33 -85 -72 -180 -64 -152 -75 -173 -95 -173&#10;-23 0 -23 1 -7 38 8 20 35 84 59 142 24 58 51 122 59 143 11 25 23 37 36 37&#10;11 0 20 -3 20 -7z m1471 -40 c-93 -231 -130 -308 -150 -311 -12 -2 -21 0 -21&#10;4 0 4 33 85 72 181 64 151 76 173 95 173 l23 0 -19 -47z m447 -126 c39 -96 72&#10;-177 72 -181 0 -4 -9 -6 -21 -4 -20 3 -57 80 -150 311 l-19 47 23 0 c19 0 31&#10;-22 95 -173z m1052 166 c0 -4 -33 -85 -72 -180 -64 -152 -75 -173 -95 -173&#10;-23 0 -23 1 -7 38 8 20 35 84 59 142 24 58 51 122 59 143 11 25 23 37 36 37&#10;11 0 20 -3 20 -7z m-11439 -257 c24 -52 -24 -126 -81 -126 -39 0 -39 22 0 37&#10;32 12 37 31 18 62 -16 26 -3 51 27 51 17 0 29 -8 36 -24z m9149 10 c19 -23 8&#10;-61 -18 -64 -44 -7 -67 32 -36 62 19 20 38 20 54 2z m-13262 -128 c3 -16 -8&#10;-18 -122 -18 -120 0 -126 1 -126 20 0 20 5 20 122 18 108 -3 123 -5 126 -20z&#10;m742 2 c0 -19 -7 -20 -125 -20 -97 0 -125 3 -125 13 0 25 12 27 132 27 111 0&#10;118 -1 118 -20z m498 -2 c3 -16 -8 -18 -127 -18 -103 0 -131 3 -131 13 0 25&#10;14 28 134 25 106 -3 121 -5 124 -20z m1730 0 c3 -17 -20 -18 -372 -18 -307 0&#10;-376 2 -376 13 0 8 3 17 7 20 4 4 171 6 372 5 339 -3 366 -4 369 -20z m990 0&#10;c3 -17 -14 -18 -247 -18 -245 0 -251 0 -251 20 0 20 5 20 247 18 227 -3 248&#10;-4 251 -20z m1482 2 c0 -20 -7 -20 -375 -20 -306 0 -375 2 -375 13 0 8 3 17 7&#10;20 3 4 172 7 375 7 361 0 368 0 368 -20z m990 0 c0 -20 -7 -20 -375 -20 -306&#10;0 -375 2 -375 13 0 8 3 17 7 20 3 4 172 7 375 7 361 0 368 0 368 -20z m990 0&#10;c0 -19 -7 -20 -250 -20 -202 0 -250 3 -250 13 0 8 3 17 7 20 3 4 116 7 250 7&#10;236 0 243 -1 243 -20z m990 0 c0 -20 -7 -20 -375 -20 -306 0 -375 2 -375 13 0&#10;8 3 17 7 20 3 4 172 7 375 7 361 0 368 0 368 -20z m748 -2 c3 -16 -8 -18 -127&#10;-18 -103 0 -131 3 -131 13 0 25 14 28 134 25 106 -3 121 -5 124 -20z m1730 0&#10;c3 -17 -32 -18 -622 -18 -515 0 -626 2 -626 13 0 8 3 17 7 20 3 4 284 6 622 5&#10;577 -3 616 -4 619 -20z m1480 0 c3 -17 -20 -18 -372 -18 -307 0 -376 2 -376&#10;13 0 8 3 17 7 20 4 4 171 6 372 5 339 -3 366 -4 369 -20z m742 2 c0 -19 -7&#10;-20 -125 -20 -97 0 -125 3 -125 13 0 25 12 27 132 27 111 0 118 -1 118 -20z&#10;m748 -2 c3 -17 -14 -18 -252 -18 -207 0 -256 3 -256 13 0 8 3 17 7 21 4 3 117&#10;5 252 4 225 -3 246 -4 249 -20z m1480 0 c3 -17 -20 -18 -372 -18 -307 0 -376&#10;2 -376 13 0 8 3 17 7 20 4 4 171 6 372 5 339 -3 366 -4 369 -20z m742 2 c0&#10;-19 -7 -20 -125 -20 -97 0 -125 3 -125 13 0 25 12 27 132 27 111 0 118 -1 118&#10;-20z m-11480 -315 l0 -225 -25 0 -25 0 0 225 0 225 25 0 25 0 0 -225z m-430&#10;168 c0 -4 -33 -85 -72 -180 -64 -152 -75 -173 -95 -173 -23 0 -23 1 -7 38 8&#10;20 35 84 59 142 24 58 51 122 59 143 11 25 23 37 36 37 11 0 20 -3 20 -7z&#10;m-210 -373 c0 -19 -7 -20 -250 -20 -243 0 -250 1 -250 20 0 19 7 20 250 20&#10;243 0 250 -1 250 -20z m-560 -315 l0 -225 -25 0 -25 0 0 225 0 225 25 0 25 0&#10;0 -225z m1041 128 c-93 -231 -130 -308 -150 -311 -12 -2 -21 0 -21 4 0 4 33&#10;85 72 181 64 151 76 173 95 173 l23 0 -19 -47z m-193 -336 c3 -16 -20 -17&#10;-372 -17 -370 0 -376 0 -376 20 0 20 5 20 372 18 346 -3 373 -4 376 -21z" style="fill: rgb(69, 93, 72);" transform="matrix(0.029804002493619922, 0, 0, -0.02980400249361992, 2.2378039834298704, 267.35480302926766)"/>
</svg>