<?xml version="1.0" encoding="utf-8"?>
<svg viewBox="0 24.357 488.498 476.996" width="488.498" height="476.996" xmlns="http://www.w3.org/2000/svg">
  <defs>
    <linearGradient gradientUnits="userSpaceOnUse" x1="4389.744" y1="3150" x2="4389.744" y2="8030" id="gradient-2" gradientTransform="matrix(-0.710318, 0.684035, -0.98299, -0.96401, 13178.161079, 8073.033827)">
      <stop offset="0" style="stop-color: rgb(110, 193, 228);"/>
      <stop offset="1" style="stop-color: rgb(38, 70, 83);"/>
    </linearGradient>
    <linearGradient gradientUnits="userSpaceOnUse" x1="4285.89" y1="3163.456" x2="4285.89" y2="8043.456" id="gradient-0">
      <stop offset="0" style="stop-color: #bada55"/>
      <stop offset="1" style="stop-color: #758d29"/>
    </linearGradient>
  </defs>
  <g transform="matrix(0.09405600279569626, 0, 0, -0.09678499400615692, -167.9562225341797, 803.5450439453125)" fill="#000000" stroke="none" style="">
    <path d="M1810 5590 l0 -2440 540 0 540 0 2 808 3 807 279 -415 c765 -1138&#10;788 -1170 816 -1185 25 -13 127 -15 693 -15 676 0 773 4 992 41 772 129 1215&#10;536 1284 1181 41 374 -39 714 -226 963 -67 89 -205 225 -302 298 -162 121&#10;-426 262 -731 392 -250 106 -439 200 -559 279 l-101 65 -62 -51 c-100 -82&#10;-315 -304 -410 -423 -49 -60 -125 -163 -170 -229 l-81 -119 24 -20 c82 -66&#10;318 -187 569 -291 235 -98 478 -216 600 -291 105 -66 241 -193 283 -265 39&#10;-67 60 -162 54 -240 -17 -223 -193 -373 -514 -437 -96 -19 -418 -25 -525 -10&#10;l-58 8 -598 827 c-330 455 -605 836 -611 847 -11 18 -4 34 55 130 141 231 246&#10;377 393 550 385 452 874 754 1368 847 95 18 155 22 308 22 256 1 435 -30 670&#10;-116 111 -41 306 -133 383 -182 l42 -26 -2 491 -3 492 -70 24 c-109 37 -290&#10;81 -426 103 -119 19 -167 20 -1185 20 l-1060 0 -52 -26 c-30 -15 -70 -47 -96&#10;-77 -24 -29 -249 -362 -501 -742 -251 -379 -461 -694 -466 -699 -5 -6 -9 294&#10;-9 767 l0 777 -540 0 -540 0 0 -2440z" style="stroke: url('#gradient-0'); paint-order: fill; fill-rule: nonzero; fill: url('#gradient-2');"/>
  </g>
</svg>